<svg width="58" height="15" viewBox="0 0 58 15" fill="none" xmlns="http://www.w3.org/2000/svg">
<path d="M11.9833 5.96484H9.33913C9.29084 5.62275 9.19224 5.31889 9.04332 5.05327C8.89441 4.78362 8.70324 4.55421 8.46982 4.36506C8.23639 4.1759 7.96674 4.03101 7.66087 3.9304C7.35902 3.82978 7.03101 3.77947 6.67685 3.77947C6.03693 3.77947 5.47952 3.93845 5.00462 4.25639C4.52971 4.57031 4.16146 5.02912 3.89986 5.63281C3.63826 6.23248 3.50746 6.96094 3.50746 7.81818C3.50746 8.69957 3.63826 9.4401 3.89986 10.0398C4.16548 10.6394 4.53575 11.0922 5.01065 11.3981C5.48556 11.704 6.03492 11.8569 6.65874 11.8569C7.00888 11.8569 7.33286 11.8106 7.63068 11.718C7.93253 11.6255 8.20017 11.4906 8.43359 11.3136C8.66702 11.1325 8.8602 10.9131 9.01314 10.6555C9.1701 10.398 9.27876 10.1042 9.33913 9.77415L11.9833 9.78622C11.9149 10.3537 11.7438 10.901 11.4702 11.4283C11.2005 11.9515 10.8363 12.4203 10.3775 12.8349C9.9227 13.2454 9.37938 13.5714 8.74751 13.8129C8.11967 14.0503 7.40933 14.169 6.61648 14.169C5.51373 14.169 4.5277 13.9195 3.65838 13.4205C2.79309 12.9214 2.1089 12.199 1.60582 11.2532C1.10677 10.3074 0.857244 9.16241 0.857244 7.81818C0.857244 6.46993 1.1108 5.32292 1.6179 4.37713C2.125 3.43134 2.81321 2.71094 3.68253 2.21591C4.55185 1.71686 5.52983 1.46733 6.61648 1.46733C7.33286 1.46733 7.99692 1.56794 8.60867 1.76918C9.22443 1.97041 9.76977 2.2642 10.2447 2.65057C10.7196 3.03291 11.1059 3.50178 11.4038 4.05717C11.7056 4.61257 11.8988 5.24846 11.9833 5.96484ZM16.8812 8.6392V14H14.3095V1.63636H16.8088V6.36328H16.9174C17.1267 5.81593 17.4648 5.38731 17.9316 5.07741C18.3985 4.76349 18.9841 4.60653 19.6884 4.60653C20.3323 4.60653 20.8938 4.7474 21.3727 5.02912C21.8556 5.30682 22.2299 5.70727 22.4956 6.23047C22.7652 6.74964 22.898 7.37145 22.894 8.09588V14H20.3223V8.55469C20.3263 7.98319 20.1814 7.53847 19.8876 7.22053C19.5978 6.90258 19.1913 6.74361 18.6681 6.74361C18.318 6.74361 18.0081 6.81806 17.7385 6.96697C17.4728 7.11589 17.2636 7.33321 17.1106 7.61896C16.9617 7.90069 16.8852 8.24077 16.8812 8.6392ZM29.6437 14.1811C28.6899 14.1811 27.8689 13.9879 27.1807 13.6016C26.4965 13.2112 25.9693 12.6598 25.599 11.9474C25.2287 11.2311 25.0436 10.3839 25.0436 9.40589C25.0436 8.45206 25.2287 7.61494 25.599 6.89453C25.9693 6.17412 26.4904 5.61269 27.1626 5.21023C27.8387 4.80776 28.6315 4.60653 29.5411 4.60653C30.1528 4.60653 30.7223 4.70514 31.2496 4.90234C31.7808 5.09553 32.2436 5.38731 32.6381 5.7777C33.0365 6.16809 33.3464 6.65909 33.5677 7.25071C33.7891 7.8383 33.8998 8.52651 33.8998 9.31534V10.0217H26.0699V8.42791H31.479C31.479 8.05765 31.3985 7.72964 31.2375 7.44389C31.0765 7.15814 30.8531 6.93478 30.5674 6.77379C30.2857 6.60878 29.9577 6.52628 29.5834 6.52628C29.193 6.52628 28.8469 6.61683 28.545 6.79794C28.2472 6.97502 28.0138 7.21449 27.8447 7.51633C27.6757 7.81416 27.5892 8.14619 27.5851 8.51243V10.0277C27.5851 10.4865 27.6697 10.8829 27.8387 11.217C28.0117 11.551 28.2552 11.8086 28.5692 11.9897C28.8831 12.1708 29.2554 12.2614 29.686 12.2614C29.9717 12.2614 30.2333 12.2211 30.4708 12.1406C30.7082 12.0601 30.9115 11.9394 31.0805 11.7784C31.2496 11.6174 31.3783 11.4202 31.4669 11.1868L33.8454 11.3438C33.7247 11.9152 33.4772 12.4143 33.1029 12.8409C32.7326 13.2635 32.2537 13.5935 31.6661 13.831C31.0825 14.0644 30.4084 14.1811 29.6437 14.1811ZM41.0645 4.72727V6.65909H35.3415V4.72727H41.0645ZM36.6515 14V4.05717C36.6515 3.38506 36.7823 2.82765 37.0439 2.38494C37.3096 1.94223 37.6718 1.6102 38.1306 1.38885C38.5894 1.16749 39.1106 1.05682 39.6942 1.05682C40.0886 1.05682 40.4488 1.087 40.7748 1.14737C41.1048 1.20774 41.3503 1.26207 41.5113 1.31037L41.0525 3.24219C40.9519 3.20999 40.8271 3.17981 40.6782 3.15163C40.5333 3.12346 40.3844 3.10938 40.2314 3.10938C39.8531 3.10938 39.5895 3.19792 39.4406 3.375C39.2917 3.54806 39.2172 3.79155 39.2172 4.10547V14H36.6515ZM43.1357 14V4.72727H45.7074V14H43.1357ZM44.4276 3.53196C44.0452 3.53196 43.7172 3.40518 43.4435 3.15163C43.1739 2.89406 43.0391 2.58617 43.0391 2.22798C43.0391 1.87382 43.1739 1.56996 43.4435 1.31641C43.7172 1.05883 44.0452 0.930042 44.4276 0.930042C44.8099 0.930042 45.1359 1.05883 45.4055 1.31641C45.6792 1.56996 45.8161 1.87382 45.8161 2.22798C45.8161 2.58617 45.6792 2.89406 45.4055 3.15163C45.1359 3.40518 44.8099 3.53196 44.4276 3.53196ZM52.4571 14.1811C51.5194 14.1811 50.7084 13.9819 50.0242 13.5835C49.3441 13.181 48.8189 12.6216 48.4486 11.9052C48.0783 11.1848 47.8932 10.3497 47.8932 9.39986C47.8932 8.442 48.0783 7.60488 48.4486 6.88849C48.8189 6.16809 49.3441 5.60866 50.0242 5.21023C50.7084 4.80776 51.5194 4.60653 52.4571 4.60653C53.3949 4.60653 54.2038 4.80776 54.884 5.21023C55.5682 5.60866 56.0954 6.16809 56.4656 6.88849C56.8359 7.60488 57.021 8.442 57.021 9.39986C57.021 10.3497 56.8359 11.1848 56.4656 11.9052C56.0954 12.6216 55.5682 13.181 54.884 13.5835C54.2038 13.9819 53.3949 14.1811 52.4571 14.1811ZM52.4692 12.1889C52.8958 12.1889 53.252 12.0682 53.5377 11.8267C53.8235 11.5812 54.0388 11.2472 54.1837 10.8246C54.3326 10.402 54.407 9.92105 54.407 9.38175C54.407 8.84245 54.3326 8.36151 54.1837 7.93892C54.0388 7.51634 53.8235 7.18229 53.5377 6.93679C53.252 6.69129 52.8958 6.56854 52.4692 6.56854C52.0386 6.56854 51.6763 6.69129 51.3825 6.93679C51.0928 7.18229 50.8734 7.51634 50.7245 7.93892C50.5796 8.36151 50.5072 8.84245 50.5072 9.38175C50.5072 9.92105 50.5796 10.402 50.7245 10.8246C50.8734 11.2472 51.0928 11.5812 51.3825 11.8267C51.6763 12.0682 52.0386 12.1889 52.4692 12.1889Z" fill="#1FCC79"/>
</svg>
